<svg xmlns="http://www.w3.org/2000/svg" viewBox="0 0 300 240" font-family="sans-serif">
<rect x="0" y="0" width="300" height="240" fill="#ffffff" />
<text x="0" y="20" font-size="13" font-family="monospace" fill="#5a6472">Score: 13/15</text>
<text x="0" y="40" font-size="15" font-family="sans-serif" font-weight="bold" fill="#0a1a33">Commercial</text>
<text x="0" y="56" font-size="12" font-family="monospace" fill="#0a1a33">Renewal ownership</text><rect x="0" y="60" width="260" height="14" fill="#eef1f6" /><rect x="0" y="60" width="260.0" height="14" fill="#2f9e6e" /><text x="263" y="71" font-size="11" font-family="monospace" fill="#0a1a33">3/3</text><text x="0" y="86" font-size="12" font-family="monospace" fill="#0a1a33">Risk surfacing</text><rect x="0" y="90" width="260" height="14" fill="#eef1f6" /><rect x="0" y="90" width="173.3" height="14" fill="#d9a52f" /><text x="181.33333333333331" y="101" font-size="11" font-family="monospace" fill="#0a1a33">2/3</text><text x="0" y="116" font-size="12" font-family="monospace" fill="#0a1a33">Expansion probing</text><rect x="0" y="120" width="260" height="14" fill="#eef1f6" /><rect x="0" y="120" width="260.0" height="14" fill="#2f9e6e" /><text x="263" y="131" font-size="11" font-family="monospace" fill="#0a1a33">3/3</text><text x="0" y="146" font-size="12" font-family="monospace" fill="#0a1a33">Stakeholder mapping</text><rect x="0" y="150" width="260" height="14" fill="#eef1f6" /><rect x="0" y="150" width="173.3" height="14" fill="#d9a52f" /><text x="181.33333333333331" y="161" font-size="11" font-family="monospace" fill="#0a1a33">2/3</text><text x="0" y="176" font-size="12" font-family="monospace" fill="#0a1a33">Next-step ownership</text><rect x="0" y="180" width="260" height="14" fill="#eef1f6" /><rect x="0" y="180" width="260.0" height="14" fill="#2f9e6e" /><text x="263" y="191" font-size="11" font-family="monospace" fill="#0a1a33">3/3</text>
<text x="0" y="230" font-size="9" font-family="monospace" fill="#9aa5b1">Obludzyner &amp; Co. | obludzyner.com | open-source scorecard</text>
</svg>